mtllib ./4-pickup_message.mtl
o 4-Pickup Message
v -1 -6.921098E-09 0.5000004
v -0.8000001 3.19717E-07 0.5000004
v -0.5999998 -2.799456E-08 0.5000004
v -0.3999999 -3.853127E-08 0.5000004
v -0.1999999 -4.906798E-08 0.5000004
v 1.490117E-08 -5.960469E-08 0.5000004
v 0.2 -7.01414E-08 0.5000004
v 0.3999999 -8.067811E-08 0.5000004
v 0.5999999 -9.121482E-08 0.5000004
v 0.8000004 6.683585E-08 0.5000004
v 1 2.248865E-07 0.5000004
v -1 4.999833E-09 0.4000003
v -0.7999998 -5.536911E-09 0.4000003
v -0.5999998 -1.607362E-08 0.4000003
v -0.3999999 -2.661034E-08 0.4000004
v -0.1999999 -3.714705E-08 0.4000004
v 1.192094E-08 -4.768376E-08 0.4000004
v 0.2 -5.822046E-08 0.4000004
v 0.3999999 -6.875717E-08 0.4000003
v 0.5999999 -7.929388E-08 0.4000003
v 0.8000004 7.875678E-08 0.4000003
v 1 2.368075E-07 0.4000003
v -1 1.692077E-08 0.3000003
v -0.7999998 6.384028E-09 0.3000003
v -0.5999998 -4.152682E-09 0.3000003
v -0.3999999 -1.468939E-08 0.3000002
v -0.1999999 -2.52261E-08 0.3000002
v 8.940702E-09 -3.576281E-08 0.3000002
v 0.2 -4.629952E-08 0.3000002
v 0.3999999 -5.683623E-08 0.3000002
v 0.5999999 -6.737295E-08 0.3000003
v 0.8000004 9.067772E-08 0.3000003
v 1 8.014101E-08 0.3000003
v -1 2.88417E-08 0.2000002
v -0.7999998 1.830496E-08 0.2000002
v -0.5999998 7.76825E-09 0.2000002
v -0.3999999 -2.768459E-09 0.2000002
v -0.2 -1.330517E-08 0.2000002
v 5.960469E-09 -2.384188E-08 0.2000002
v 0.2 -3.437859E-08 0.2000002
v 0.3999999 -4.49153E-08 0.2000002
v 0.5999999 -5.545201E-08 0.2000002
v 0.8000004 1.025987E-07 0.2000002
v 1 9.206195E-08 0.2000001
v -1 4.076265E-08 0.1000001
v -0.7999998 3.022591E-08 0.1000001
v -0.5999999 1.96892E-08 0.1000001
v -0.3999999 9.152487E-09 0.1
v -0.2 -1.384223E-09 0.1
v 2.980233E-09 -1.192093E-08 0.1
v 0.2 -2.245764E-08 0.1
v 0.3999999 -3.299435E-08 0.1
v 0.5999999 -4.353106E-08 0.1
v 0.8000004 1.145196E-07 0.1000001
v 1 1.039829E-07 0.1000001
v -1 -2.844913E-07 4.214678E-08
v -0.7999998 4.214684E-08 3.371747E-08
v -0.5999999 3.161013E-08 2.52881E-08
v -0.3999999 2.107342E-08 1.685873E-08
v -0.2 1.053671E-08 8.429367E-09
v 0 0 0
v 0.2 -1.053671E-08 -8.429367E-09
v 0.3999999 -2.107342E-08 -1.685873E-08
v 0.5999999 -3.161013E-08 -2.52881E-08
v 0.8000004 1.264405E-07 -3.371746E-08
v 1 1.159038E-07 -4.214682E-08
v -1 -2.725703E-07 -0.1000001
v -0.7999998 5.406778E-08 -0.1000001
v -0.5999999 4.353107E-08 -0.1000001
v -0.3999999 3.299436E-08 -0.1000001
v -0.2 2.245766E-08 -0.1000001
v -2.980237E-09 1.192095E-08 -0.1000002
v 0.2 1.384237E-09 -0.1000002
v 0.3999999 -9.152487E-09 -0.1
v 0.5999999 -1.96892E-08 -0.1000001
v 0.8000004 1.383615E-07 -0.1000001
v 1 1.278248E-07 -0.1000001
v -1 -2.606494E-07 -0.2000001
v -0.7999998 6.598871E-08 -0.2000002
v -0.5999999 5.545201E-08 -0.2000002
v -0.3999999 4.49153E-08 -0.2000002
v -0.2 3.437859E-08 -0.2000002
v -5.960469E-09 2.384188E-08 -0.2000002
v 0.2 1.330517E-08 -0.2000002
v 0.3999999 2.768459E-09 -0.2000002
v 0.5999998 -7.76825E-09 -0.2000002
v 0.8000005 -1.830499E-08 -0.2000002
v 1 1.397457E-07 -0.2000002
v -1 -2.487284E-07 -0.3000003
v -0.8000002 -2.592651E-07 -0.3000003
v -0.5999999 6.737295E-08 -0.3000003
v -0.3999999 5.683623E-08 -0.3000002
v -0.2 4.629952E-08 -0.3000002
v -8.940702E-09 3.576281E-08 -0.3000002
v 0.1999999 2.52261E-08 -0.3000002
v 0.3999999 1.468939E-08 -0.3000002
v 0.5999998 4.152682E-09 -0.3000003
v 0.8000005 -6.384063E-09 -0.3000003
v 1 1.516666E-07 -0.3000003
v -1 -2.368075E-07 -0.4000005
v -0.8000002 -2.473442E-07 -0.4000005
v -0.5999999 7.92939E-08 -0.4000005
v -0.3999999 6.875717E-08 -0.4000003
v -0.2 5.822046E-08 -0.4000004
v -1.192094E-08 4.768376E-08 -0.4000004
v 0.1999999 3.714705E-08 -0.4000004
v 0.3999999 2.661034E-08 -0.4000004
v 0.5999998 1.607363E-08 -0.4000004
v 0.8000005 5.536883E-09 -0.4000004
v 1 -4.999826E-09 -0.4000004
v -1 -2.248866E-07 -0.5000004
v -0.8000002 -2.354233E-07 -0.5000004
v -0.5999999 9.121482E-08 -0.5000004
v -0.3999999 8.067811E-08 -0.5000004
v -0.2 7.01414E-08 -0.5000004
v -1.490117E-08 5.960469E-08 -0.5000004
v 0.1999999 4.906798E-08 -0.5000004
v 0.3999999 3.853127E-08 -0.5000004
v 0.5999998 2.799456E-08 -0.5000004
v 0.8000005 1.745781E-08 -0.5000004
v 1 6.921105E-09 -0.5000004

vn 4.214685E-08 1 9.152497E-08
vn 4.214685E-08 1 9.152497E-08
vn 4.214685E-08 1 9.152497E-08
vn 4.214685E-08 1 9.152497E-08
vn 4.214685E-08 1 9.152497E-08
vn 4.214685E-08 1 9.152497E-08
vn 4.214685E-08 1 9.152497E-08
vn 4.214685E-08 1 9.152497E-08
vn 4.214685E-08 1 9.152497E-08
vn 4.214685E-08 1 9.152497E-08
vn 4.214685E-08 1 9.152497E-08
vn 4.214685E-08 1 9.152497E-08
vn 4.214685E-08 1 9.152497E-08
vn 4.214685E-08 1 9.152497E-08
vn 4.214685E-08 1 9.152497E-08
vn 4.214685E-08 1 9.152497E-08
vn 4.214685E-08 1 9.152497E-08
vn 4.214685E-08 1 9.152497E-08
vn 4.214685E-08 1 9.152497E-08
vn 4.214685E-08 1 9.152497E-08
vn 4.214685E-08 1 9.152497E-08
vn 4.214685E-08 1 9.152497E-08
vn 4.214685E-08 1 9.152497E-08
vn 4.214685E-08 1 9.152497E-08
vn 4.214685E-08 1 9.152497E-08
vn 4.214685E-08 1 9.152497E-08
vn 4.214685E-08 1 9.152497E-08
vn 4.214685E-08 1 9.152497E-08
vn 4.214685E-08 1 9.152497E-08
vn 4.214685E-08 1 9.152497E-08
vn 4.214685E-08 1 9.152497E-08
vn 4.214685E-08 1 9.152497E-08
vn 4.214685E-08 1 9.152497E-08
vn 4.214685E-08 1 9.152497E-08
vn 4.214685E-08 1 9.152497E-08
vn 4.214685E-08 1 9.152497E-08
vn 4.214685E-08 1 9.152497E-08
vn 4.214685E-08 1 9.152497E-08
vn 4.214685E-08 1 9.152497E-08
vn 4.214685E-08 1 9.152497E-08
vn 4.214685E-08 1 9.152497E-08
vn 4.214685E-08 1 9.152497E-08
vn 4.214685E-08 1 9.152497E-08
vn 4.214685E-08 1 9.152497E-08
vn 4.214685E-08 1 9.152497E-08
vn 4.214685E-08 1 9.152497E-08
vn 4.214685E-08 1 9.152497E-08
vn 4.214685E-08 1 9.152497E-08
vn 4.214685E-08 1 9.152497E-08
vn 4.214685E-08 1 9.152497E-08
vn 4.214685E-08 1 9.152497E-08
vn 4.214685E-08 1 9.152497E-08
vn 4.214685E-08 1 9.152497E-08
vn 4.214685E-08 1 9.152497E-08
vn 4.214685E-08 1 9.152497E-08
vn 4.214685E-08 1 9.152497E-08
vn 4.214685E-08 1 9.152497E-08
vn 4.214685E-08 1 9.152497E-08
vn 4.214685E-08 1 9.152497E-08
vn 4.214685E-08 1 9.152497E-08
vn 4.214685E-08 1 9.152497E-08
vn 4.214685E-08 1 9.152497E-08
vn 4.214685E-08 1 9.152497E-08
vn 4.214685E-08 1 9.152497E-08
vn 4.214685E-08 1 9.152497E-08
vn 4.214685E-08 1 9.152497E-08
vn 4.214685E-08 1 9.152497E-08
vn 4.214685E-08 1 9.152497E-08
vn 4.214685E-08 1 9.152497E-08
vn 4.214685E-08 1 9.152497E-08
vn 4.214685E-08 1 9.152497E-08
vn 4.214685E-08 1 9.152497E-08
vn 4.214685E-08 1 9.152497E-08
vn 4.214685E-08 1 9.152497E-08
vn 4.214685E-08 1 9.152497E-08
vn 4.214685E-08 1 9.152497E-08
vn 4.214685E-08 1 9.152497E-08
vn 4.214685E-08 1 9.152497E-08
vn 4.214685E-08 1 9.152497E-08
vn 4.214685E-08 1 9.152497E-08
vn 4.214685E-08 1 9.152497E-08
vn 4.214685E-08 1 9.152497E-08
vn 4.214685E-08 1 9.152497E-08
vn 4.214685E-08 1 9.152497E-08
vn 4.214685E-08 1 9.152497E-08
vn 4.214685E-08 1 9.152497E-08
vn 4.214685E-08 1 9.152497E-08
vn 4.214685E-08 1 9.152497E-08
vn 4.214685E-08 1 9.152497E-08
vn 4.214685E-08 1 9.152497E-08
vn 4.214685E-08 1 9.152497E-08
vn 4.214685E-08 1 9.152497E-08
vn 4.214685E-08 1 9.152497E-08
vn 4.214685E-08 1 9.152497E-08
vn 4.214685E-08 1 9.152497E-08
vn 4.214685E-08 1 9.152497E-08
vn 4.214685E-08 1 9.152497E-08
vn 4.214685E-08 1 9.152497E-08
vn 4.214685E-08 1 9.152497E-08
vn 4.214685E-08 1 9.152497E-08
vn 4.214685E-08 1 9.152497E-08
vn 4.214685E-08 1 9.152497E-08
vn 4.214685E-08 1 9.152497E-08
vn 4.214685E-08 1 9.152497E-08
vn 4.214685E-08 1 9.152497E-08
vn 4.214685E-08 1 9.152497E-08
vn 4.214685E-08 1 9.152497E-08
vn 4.214685E-08 1 9.152497E-08
vn 4.214685E-08 1 9.152497E-08
vn 4.214685E-08 1 9.152497E-08
vn 4.214685E-08 1 9.152497E-08
vn 4.214685E-08 1 9.152497E-08
vn 4.214685E-08 1 9.152497E-08
vn 4.214685E-08 1 9.152497E-08
vn 4.214685E-08 1 9.152497E-08
vn 4.214685E-08 1 9.152497E-08
vn 4.214685E-08 1 9.152497E-08
vn 4.214685E-08 1 9.152497E-08
vn 4.214685E-08 1 9.152497E-08
vn 4.214685E-08 1 9.152497E-08
vn 4.214685E-08 1 9.152497E-08

vt 0 0
vt 0.1 0
vt 0.2 0
vt 0.3 0
vt 0.4 0
vt 0.5 0
vt 0.6 0
vt 0.7 0
vt 0.8 0
vt 0.9 0
vt 1 0
vt 0 0.07300001
vt 0.1 0.07300001
vt 0.2 0.07300001
vt 0.3 0.07300001
vt 0.4 0.07300001
vt 0.5 0.07300001
vt 0.6 0.07300001
vt 0.7 0.07300001
vt 0.8 0.07300001
vt 0.9 0.07300001
vt 1 0.07300001
vt 0 0.146
vt 0.1 0.146
vt 0.2 0.146
vt 0.3 0.146
vt 0.4 0.146
vt 0.5 0.146
vt 0.6 0.146
vt 0.7 0.146
vt 0.8 0.146
vt 0.9 0.146
vt 1 0.146
vt 0 0.219
vt 0.1 0.219
vt 0.2 0.219
vt 0.3 0.219
vt 0.4 0.219
vt 0.5 0.219
vt 0.6 0.219
vt 0.7 0.219
vt 0.8 0.219
vt 0.9 0.219
vt 1 0.219
vt 0 0.292
vt 0.1 0.292
vt 0.2 0.292
vt 0.3 0.292
vt 0.4 0.292
vt 0.5 0.292
vt 0.6 0.292
vt 0.7 0.292
vt 0.8 0.292
vt 0.9 0.292
vt 1 0.292
vt 0 0.365
vt 0.1 0.365
vt 0.2 0.365
vt 0.3 0.365
vt 0.4 0.365
vt 0.5 0.365
vt 0.6 0.365
vt 0.7 0.365
vt 0.8 0.365
vt 0.9 0.365
vt 1 0.365
vt 0 0.438
vt 0.1 0.438
vt 0.2 0.438
vt 0.3 0.438
vt 0.4 0.438
vt 0.5 0.438
vt 0.6 0.438
vt 0.7 0.438
vt 0.8 0.438
vt 0.9 0.438
vt 1 0.438
vt 0 0.511
vt 0.1 0.511
vt 0.2 0.511
vt 0.3 0.511
vt 0.4 0.511
vt 0.5 0.511
vt 0.6 0.511
vt 0.7 0.511
vt 0.8 0.511
vt 0.9 0.511
vt 1 0.511
vt 0 0.5840001
vt 0.1 0.5840001
vt 0.2 0.5840001
vt 0.3 0.5840001
vt 0.4 0.5840001
vt 0.5 0.5840001
vt 0.6 0.5840001
vt 0.7 0.5840001
vt 0.8 0.5840001
vt 0.9 0.5840001
vt 1 0.5840001
vt 0 0.6570001
vt 0.1 0.6570001
vt 0.2 0.6570001
vt 0.3 0.6570001
vt 0.4 0.6570001
vt 0.5 0.6570001
vt 0.6 0.6570001
vt 0.7 0.6570001
vt 0.8 0.6570001
vt 0.9 0.6570001
vt 1 0.6570001
vt 0 0.73
vt 0.1 0.73
vt 0.2 0.73
vt 0.3 0.73
vt 0.4 0.73
vt 0.5 0.73
vt 0.6 0.73
vt 0.7 0.73
vt 0.8 0.73
vt 0.9 0.73
vt 1 0.73

usemtl 4-Pickup
f 12/12/12 1/1/1 13/13/13
f 13/13/13 1/1/1 2/2/2
f 13/13/13 2/2/2 14/14/14
f 14/14/14 2/2/2 3/3/3
f 14/14/14 3/3/3 15/15/15
f 15/15/15 3/3/3 4/4/4
f 15/15/15 4/4/4 16/16/16
f 16/16/16 4/4/4 5/5/5
f 16/16/16 5/5/5 17/17/17
f 17/17/17 5/5/5 6/6/6
f 17/17/17 6/6/6 18/18/18
f 18/18/18 6/6/6 7/7/7
f 18/18/18 7/7/7 19/19/19
f 19/19/19 7/7/7 8/8/8
f 19/19/19 8/8/8 20/20/20
f 20/20/20 8/8/8 9/9/9
f 20/20/20 9/9/9 21/21/21
f 21/21/21 9/9/9 10/10/10
f 21/21/21 10/10/10 22/22/22
f 22/22/22 10/10/10 11/11/11
f 27/27/27 15/15/15 16/16/16
f 27/27/27 16/16/16 28/28/28
f 28/28/28 16/16/16 17/17/17
f 28/28/28 17/17/17 29/29/29
f 29/29/29 17/17/17 18/18/18
f 29/29/29 18/18/18 30/30/30
f 30/30/30 18/18/18 19/19/19
f 30/30/30 19/19/19 31/31/31
f 31/31/31 19/19/19 20/20/20
f 31/31/31 20/20/20 32/32/32
f 32/32/32 20/20/20 21/21/21
f 32/32/32 21/21/21 33/33/33
f 33/33/33 21/21/21 22/22/22
f 39/39/39 27/27/27 28/28/28
f 38/38/38 27/27/27 39/39/39
f 38/38/38 26/26/26 27/27/27
f 26/26/26 15/15/15 27/27/27
f 26/26/26 14/14/14 15/15/15
f 25/25/25 14/14/14 26/26/26
f 25/25/25 13/13/13 14/14/14
f 24/24/24 13/13/13 25/25/25
f 24/24/24 12/12/12 13/13/13
f 23/23/23 12/12/12 24/24/24
f 35/35/35 23/23/23 24/24/24
f 34/34/34 23/23/23 35/35/35
f 35/35/35 24/24/24 36/36/36
f 36/36/36 24/24/24 25/25/25
f 36/36/36 25/25/25 37/37/37
f 37/37/37 25/25/25 26/26/26
f 37/37/37 26/26/26 38/38/38
f 44/44/44 32/32/32 33/33/33
f 46/46/46 34/34/34 35/35/35
f 45/45/45 34/34/34 46/46/46
f 46/46/46 35/35/35 47/47/47
f 47/47/47 35/35/35 36/36/36
f 47/47/47 36/36/36 48/48/48
f 48/48/48 36/36/36 37/37/37
f 48/48/48 37/37/37 49/49/49
f 49/49/49 37/37/37 38/38/38
f 49/49/49 38/38/38 50/50/50
f 50/50/50 38/38/38 39/39/39
f 50/50/50 39/39/39 51/51/51
f 51/51/51 39/39/39 40/40/40
f 39/39/39 28/28/28 40/40/40
f 40/40/40 28/28/28 29/29/29
f 40/40/40 29/29/29 41/41/41
f 41/41/41 29/29/29 30/30/30
f 41/41/41 30/30/30 42/42/42
f 42/42/42 30/30/30 31/31/31
f 42/42/42 31/31/31 43/43/43
f 43/43/43 31/31/31 32/32/32
f 43/43/43 32/32/32 44/44/44
f 51/51/51 40/40/40 52/52/52
f 52/52/52 40/40/40 41/41/41
f 52/52/52 41/41/41 53/53/53
f 53/53/53 41/41/41 42/42/42
f 53/53/53 42/42/42 54/54/54
f 54/54/54 42/42/42 43/43/43
f 54/54/54 43/43/43 55/55/55
f 55/55/55 43/43/43 44/44/44
f 63/63/63 51/51/51 52/52/52
f 62/62/62 51/51/51 63/63/63
f 63/63/63 52/52/52 64/64/64
f 64/64/64 52/52/52 53/53/53
f 64/64/64 53/53/53 65/65/65
f 65/65/65 53/53/53 54/54/54
f 65/65/65 54/54/54 66/66/66
f 66/66/66 54/54/54 55/55/55
f 74/74/74 62/62/62 63/63/63
f 73/73/73 62/62/62 74/74/74
f 73/73/73 61/61/61 62/62/62
f 61/61/61 50/50/50 62/62/62
f 61/61/61 49/49/49 50/50/50
f 60/60/60 49/49/49 61/61/61
f 60/60/60 48/48/48 49/49/49
f 59/59/59 48/48/48 60/60/60
f 59/59/59 47/47/47 48/48/48
f 58/58/58 47/47/47 59/59/59
f 58/58/58 46/46/46 47/47/47
f 57/57/57 46/46/46 58/58/58
f 57/57/57 45/45/45 46/46/46
f 56/56/56 45/45/45 57/57/57
f 68/68/68 56/56/56 57/57/57
f 67/67/67 56/56/56 68/68/68
f 68/68/68 57/57/57 69/69/69
f 69/69/69 57/57/57 58/58/58
f 69/69/69 58/58/58 70/70/70
f 70/70/70 58/58/58 59/59/59
f 70/70/70 59/59/59 71/71/71
f 71/71/71 59/59/59 60/60/60
f 71/71/71 60/60/60 72/72/72
f 72/72/72 60/60/60 61/61/61
f 72/72/72 61/61/61 73/73/73
f 79/79/79 67/67/67 68/68/68
f 78/78/78 67/67/67 79/79/79
f 79/79/79 68/68/68 80/80/80
f 80/80/80 68/68/68 69/69/69
f 80/80/80 69/69/69 81/81/81
f 81/81/81 69/69/69 70/70/70
f 81/81/81 70/70/70 82/82/82
f 82/82/82 70/70/70 71/71/71
f 82/82/82 71/71/71 83/83/83
f 83/83/83 71/71/71 72/72/72
f 83/83/83 72/72/72 84/84/84
f 84/84/84 72/72/72 73/73/73
f 84/84/84 73/73/73 85/85/85
f 85/85/85 73/73/73 74/74/74
f 85/85/85 74/74/74 86/86/86
f 86/86/86 74/74/74 75/75/75
f 74/74/74 63/63/63 75/75/75
f 75/75/75 63/63/63 64/64/64
f 75/75/75 64/64/64 76/76/76
f 76/76/76 64/64/64 65/65/65
f 76/76/76 65/65/65 77/77/77
f 77/77/77 65/65/65 66/66/66
f 86/86/86 75/75/75 87/87/87
f 87/87/87 75/75/75 76/76/76
f 87/87/87 76/76/76 88/88/88
f 88/88/88 76/76/76 77/77/77
f 93/93/93 81/81/81 82/82/82
f 93/93/93 82/82/82 94/94/94
f 94/94/94 82/82/82 83/83/83
f 94/94/94 83/83/83 95/95/95
f 95/95/95 83/83/83 84/84/84
f 95/95/95 84/84/84 96/96/96
f 96/96/96 84/84/84 85/85/85
f 96/96/96 85/85/85 97/97/97
f 97/97/97 85/85/85 86/86/86
f 97/97/97 86/86/86 98/98/98
f 98/98/98 86/86/86 87/87/87
f 98/98/98 87/87/87 99/99/99
f 99/99/99 87/87/87 88/88/88
f 105/105/105 93/93/93 94/94/94
f 104/104/104 93/93/93 105/105/105
f 104/104/104 92/92/92 93/93/93
f 92/92/92 81/81/81 93/93/93
f 92/92/92 80/80/80 81/81/81
f 91/91/91 80/80/80 92/92/92
f 91/91/91 79/79/79 80/80/80
f 90/90/90 79/79/79 91/91/91
f 90/90/90 78/78/78 79/79/79
f 89/89/89 78/78/78 90/90/90
f 101/101/101 89/89/89 90/90/90
f 100/100/100 89/89/89 101/101/101
f 101/101/101 90/90/90 102/102/102
f 102/102/102 90/90/90 91/91/91
f 102/102/102 91/91/91 103/103/103
f 103/103/103 91/91/91 92/92/92
f 103/103/103 92/92/92 104/104/104
f 110/110/110 98/98/98 99/99/99
f 112/112/112 100/100/100 101/101/101
f 111/111/111 100/100/100 112/112/112
f 112/112/112 101/101/101 113/113/113
f 113/113/113 101/101/101 102/102/102
f 113/113/113 102/102/102 114/114/114
f 114/114/114 102/102/102 103/103/103
f 114/114/114 103/103/103 115/115/115
f 115/115/115 103/103/103 104/104/104
f 115/115/115 104/104/104 116/116/116
f 116/116/116 104/104/104 105/105/105
f 116/116/116 105/105/105 117/117/117
f 117/117/117 105/105/105 106/106/106
f 105/105/105 94/94/94 106/106/106
f 106/106/106 94/94/94 95/95/95
f 106/106/106 95/95/95 107/107/107
f 107/107/107 95/95/95 96/96/96
f 107/107/107 96/96/96 108/108/108
f 108/108/108 96/96/96 97/97/97
f 108/108/108 97/97/97 109/109/109
f 109/109/109 97/97/97 98/98/98
f 109/109/109 98/98/98 110/110/110
f 117/117/117 106/106/106 118/118/118
f 118/118/118 106/106/106 107/107/107
f 118/118/118 107/107/107 119/119/119
f 119/119/119 107/107/107 108/108/108
f 119/119/119 108/108/108 120/120/120
f 120/120/120 108/108/108 109/109/109
f 120/120/120 109/109/109 121/121/121
f 121/121/121 109/109/109 110/110/110
f 62/62/62 50/50/50 51/51/51
